<?xml version="1.0" encoding="UTF-8"?>
<svg width="140px" height="29px" viewBox="0 0 140 29" version="1.1" xmlns="http://www.w3.org/2000/svg" xmlns:xlink="http://www.w3.org/1999/xlink">
    <!-- Generator: Sketch 42 (36781) - http://www.bohemiancoding.com/sketch -->
    <title>Logo Intenso</title>
    <desc>Created with Sketch.</desc>
    <defs></defs>
    <g id="Page-1" stroke="none" stroke-width="1" fill="none" fill-rule="evenodd">
        <g id="Header" transform="translate(-70.000000, 0.000000)">
            <g id="Logo-Intenso" transform="translate(70.000000, 0.000000)">
                <g id="Isotype">
                    <rect id="Rectangle" fill="#F42156" x="0" y="0" width="27.826087" height="28.1308411" rx="5"></rect>
                    <path d="M17.4294686,22.0074602 C17.2906821,19.4882279 13.49129,20.1290182 14.544123,14.6522188 C14.825232,13.1930123 10.0516822,17.6279306 10.6236242,22.8573907 C10.6683506,23.2701323 10.8154989,23.8435271 10.9467315,23.9551037 C11.052194,24.1596791 11.1785592,24.345339 11.3210928,24.5123677 C11.1336344,24.4537396 10.9248005,24.3559333 10.721187,24.2516984 C8.61382899,23.0622166 6.86502471,20.6959183 7.34081671,17.6319736 C8.91864851,7.47546652 20.1295587,1.97556438 18.8643623,4.55083999 C14.1074192,14.2070681 21.5686585,15.2540654 20.5496625,20.0637092 C19.9700227,22.8044661 18.2092808,24.3147522 16.1590778,24.8777376 C16.3700897,24.7168431 16.5632317,24.5317914 16.7319109,24.3225326 C17.2020708,23.7392655 17.4821786,22.9679332 17.4294686,22.0074602 Z" id="Combined-Shape" fill="#FFFFFF"></path>
                </g>
                <path d="M36.1991766,2.69479569 C36.5032106,2.6584934 36.8028566,2.63726636 37.1304348,2.63726636 C37.4689567,2.63726636 37.7675396,2.65779106 38.0813393,2.69641852 C38.5516269,2.75375869 38.9250391,3.12950298 38.9837333,3.60430548 C39.0242559,3.91470025 39.0434783,4.23825816 39.0434783,4.57126172 C39.0434783,4.8988095 39.0248806,5.21721859 38.9897854,5.52206998 C38.9321502,6.01291593 38.5440535,6.40097793 38.0572867,6.44816449 C37.7493186,6.48546156 37.4628891,6.50525709 37.1304348,6.50525709 C36.7907155,6.50525709 36.5004694,6.48592365 36.1856651,6.44703105 C35.7184778,6.39259217 35.3458313,6.02469747 35.2795839,5.55667999 C35.2764624,5.53385721 35.2745322,5.51649046 35.2730276,5.49900022 C35.2416187,5.20943725 35.2173913,4.87535311 35.2173913,4.57126172 C35.2173913,4.2511705 35.2392845,3.9389649 35.2733052,3.64035877 C35.3176751,3.14209358 35.7076288,2.74458329 36.1991766,2.69479569 Z M38.9086957,8.45683411 L38.9086957,25.4935748 L35.3565217,25.4935748 L35.3565217,8.45683411 L38.9086957,8.45683411 Z M46.7069565,10.7116968 C47.0704366,10.3331007 47.4476792,9.99069906 47.8386957,9.6844816 C48.2297121,9.37826414 48.645505,9.11380758 49.086087,8.89110397 C49.5266689,8.66840037 49.9947801,8.49580766 50.4904348,8.37332068 C50.9860894,8.25083369 51.5257942,8.18959112 52.1095652,8.18959112 C53.0347872,8.18959112 53.847098,8.34548131 54.5465217,8.65726636 C55.2459455,8.9690514 55.835215,9.40888443 56.3143478,9.97677862 C56.7934807,10.5446728 57.1542017,11.2266924 57.3965217,12.0228578 C57.6388418,12.8190232 57.76,13.6959055 57.76,14.653531 L57.76,25.4935748 L54.2243478,25.4935748 L54.2243478,14.653531 C54.2243478,13.5066074 53.9627562,12.6158063 53.4395652,11.9811011 C52.9163742,11.3463958 52.1205851,11.0290479 51.0521739,11.0290479 C50.2591265,11.0290479 49.5239164,11.2127756 48.8465217,11.5802366 C48.169127,11.9476975 47.5330465,12.4487731 46.9382609,13.0834784 L46.9382609,25.4935748 L43.386087,25.4935748 L43.386087,8.45683411 L45.533913,8.45683411 C46.0185531,8.45683411 46.3269559,8.68510188 46.4591304,9.14164428 L46.7069565,10.7116968 Z M67.0947826,25.7608178 C65.695935,25.7608178 64.6192791,25.362741 63.8647826,24.5665756 C63.1102861,23.7704103 62.7330435,22.6485577 62.7330435,21.2009842 L62.7330435,11.2795882 L60.8826087,11.2795882 C60.6843468,11.2795882 60.5136239,11.2155619 60.3704348,11.0875073 C60.2272457,10.9594527 60.1556522,10.7673737 60.1556522,10.5112646 L60.1556522,9.05813084 L62.8817391,8.65726636 L63.6582609,3.72997371 C63.7133336,3.54067565 63.8069559,3.38756922 63.9391304,3.27064982 C64.071305,3.15373043 64.2475351,3.09527161 64.4678261,3.09527161 L66.2852174,3.09527161 L66.2852174,8.69067173 L70.9608696,8.69067173 L70.9608696,11.2795882 L66.2852174,11.2795882 L66.2852174,20.9504439 C66.2852174,21.5628788 66.4339116,22.0305494 66.7313043,22.3534696 C67.0286971,22.6763899 67.4252149,22.8378475 67.9208696,22.8378475 C68.1962333,22.8378475 68.4330425,22.8016588 68.6313043,22.7292801 C68.8295662,22.6569014 69.0002891,22.5789563 69.1434783,22.4954425 C69.2866674,22.4119286 69.4105792,22.3339835 69.5152174,22.2616048 C69.6198556,22.1892262 69.7217386,22.1530374 69.8208696,22.1530374 C70.0191314,22.1530374 70.17884,22.2643875 70.3,22.4870911 L71.3573913,24.2408732 C70.8066639,24.7308212 70.1568153,25.1066279 69.4078261,25.3683046 C68.6588368,25.6299814 67.8878301,25.7608178 67.0947826,25.7608178 Z M76.2313043,17.2591501 C76.2753625,18.2279108 76.4240567,19.0658205 76.6773913,19.7729045 C76.9307259,20.4799884 77.2694182,21.0673604 77.6934783,21.535038 C78.1175384,22.0027155 78.6242,22.3506847 79.2134783,22.5789559 C79.8027566,22.8072271 80.4608659,22.921361 81.1878261,22.921361 C81.8817426,22.921361 82.4820265,22.8406321 82.9886957,22.679172 C83.4953649,22.5177119 83.9359402,22.3395517 84.3104348,22.144686 C84.6849294,21.9498204 85.0043465,21.7716602 85.2686957,21.6102001 C85.5330448,21.4487399 85.7753612,21.3680111 85.9956522,21.3680111 C86.2820304,21.3680111 86.5023181,21.4793612 86.6565217,21.7020648 L87.6643478,23.0215771 C87.245795,23.5226602 86.7721766,23.9457907 86.2434783,24.2909813 C85.71478,24.6361719 85.1530465,24.917331 84.5582609,25.134467 C83.9634753,25.351603 83.3521771,25.5074932 82.7243478,25.6021422 C82.0965186,25.6967913 81.4852204,25.7441151 80.8904348,25.7441151 C79.7228927,25.7441151 78.6407296,25.5464686 77.643913,25.1511697 C76.6470965,24.7558708 75.7824674,24.1740663 75.05,23.4057389 C74.3175326,22.6374115 73.7447847,21.6853678 73.3317391,20.5495794 C72.9186936,19.4137911 72.7121739,18.105427 72.7121739,16.624448 C72.7121739,15.4441189 72.8966648,14.3417526 73.2656522,13.317316 C73.6346395,12.2928794 74.1633299,11.4020784 74.8517391,10.6448861 C75.5401484,9.88769384 76.3772414,9.28918688 77.3630435,8.84934725 C78.3488455,8.40950763 79.4640517,8.18959112 80.7086957,8.18959112 C81.7440631,8.18959112 82.7023144,8.35940007 83.5834783,8.69902307 C84.4646421,9.03864607 85.2246345,9.53693791 85.8634783,10.1939136 C86.502322,10.8508892 87.0007228,11.6553939 87.3586957,12.6074518 C87.7166685,13.5595097 87.8956522,14.6423898 87.8956522,15.8561244 C87.8956522,16.4128834 87.8350731,16.7859064 87.713913,16.9752044 C87.592753,17.1645025 87.3724654,17.2591501 87.0530435,17.2591501 L76.2313043,17.2591501 Z M84.7069565,15.0543954 C84.7069565,14.4530957 84.6215951,13.8935613 84.4508696,13.3757754 C84.2801441,12.8579895 84.0295669,12.4070215 83.6991304,12.0228578 C83.368694,11.638694 82.9584082,11.3380487 82.4682609,11.1209127 C81.9781135,10.9037767 81.4136264,10.7952103 80.7747826,10.7952103 C79.4860805,10.7952103 78.4727573,11.1682332 77.7347826,11.9142903 C76.9968079,12.6603474 76.5286966,13.7070386 76.3304348,15.0543954 L84.7069565,15.0543954 Z M94.5208696,10.7116968 C94.8843496,10.3331007 95.2615922,9.99069906 95.6526087,9.6844816 C96.0436251,9.37826414 96.4594181,9.11380758 96.9,8.89110397 C97.3405819,8.66840037 97.8086932,8.49580766 98.3043478,8.37332068 C98.8000025,8.25083369 99.3397072,8.18959112 99.9234783,8.18959112 C100.8487,8.18959112 101.661011,8.34548131 102.360435,8.65726636 C103.059859,8.9690514 103.649128,9.40888443 104.128261,9.97677862 C104.607394,10.5446728 104.968115,11.2266924 105.210435,12.0228578 C105.452755,12.8190232 105.573913,13.6959055 105.573913,14.653531 L105.573913,25.4935748 L102.038261,25.4935748 L102.038261,14.653531 C102.038261,13.5066074 101.776669,12.6158063 101.253478,11.9811011 C100.730287,11.3463958 99.9344981,11.0290479 98.866087,11.0290479 C98.0730395,11.0290479 97.3378295,11.2127756 96.6604348,11.5802366 C95.9830401,11.9476975 95.3469595,12.4487731 94.7521739,13.0834784 L94.7521739,25.4935748 L91.2,25.4935748 L91.2,8.45683411 L93.3478261,8.45683411 C93.8324662,8.45683411 94.1408689,8.68510188 94.2730435,9.14164428 L94.5208696,10.7116968 Z M119.79913,11.5468312 C119.711014,11.7027237 119.611885,11.8140738 119.501739,11.8808849 C119.391594,11.947696 119.253914,11.9811011 119.088696,11.9811011 C118.901448,11.9811011 118.697682,11.9226422 118.477391,11.8057228 C118.2571,11.6888034 117.998262,11.557967 117.70087,11.4132097 C117.403477,11.2684524 117.05377,11.1376159 116.651739,11.0206966 C116.249708,10.9037772 115.778843,10.8453183 115.23913,10.8453183 C114.798549,10.8453183 114.399277,10.8982097 114.041304,11.0039939 C113.683332,11.1097781 113.380436,11.2601008 113.132609,11.4549664 C112.884781,11.6498321 112.694783,11.8780998 112.562609,12.1397766 C112.430434,12.4014533 112.364348,12.6826124 112.364348,12.9832623 C112.364348,13.3841288 112.485506,13.7181792 112.727826,13.9854235 C112.970146,14.2526678 113.289563,14.4837193 113.686087,14.678585 C114.082611,14.8734506 114.5342,15.0488271 115.04087,15.2047196 C115.547539,15.3606122 116.065215,15.5276373 116.593913,15.7058002 C117.122611,15.8839631 117.640287,16.0899609 118.146957,16.3237996 C118.653626,16.5576384 119.105215,16.844365 119.501739,17.183988 C119.898263,17.523611 120.21768,17.9356065 120.46,18.4199869 C120.70232,18.9043672 120.823478,19.4917391 120.823478,20.1821203 C120.823478,20.9838533 120.680291,21.7243317 120.393913,22.4035777 C120.107535,23.0828237 119.688988,23.6729794 119.138261,24.1740625 C118.587533,24.6751456 117.901888,25.0648711 117.081304,25.3432506 C116.260721,25.6216301 115.321744,25.7608178 114.264348,25.7608178 C113.680577,25.7608178 113.11609,25.7079264 112.57087,25.6021422 C112.025649,25.496358 111.507973,25.3516028 111.017826,25.1678724 C110.527679,24.9841419 110.070582,24.7642254 109.646522,24.5081162 C109.222462,24.2520071 108.845219,23.9736318 108.514783,23.6729819 L109.34087,22.3033616 C109.44,22.1363339 109.563912,22.0054975 109.712609,21.9108484 C109.861305,21.8161994 110.045796,21.7688756 110.266087,21.7688756 C110.497392,21.7688756 110.725941,21.8440369 110.951739,21.9943619 C111.177537,22.1446868 111.441883,22.3089282 111.744783,22.4870911 C112.047683,22.665254 112.413911,22.8294955 112.843478,22.9798204 C113.273046,23.1301453 113.807243,23.2053067 114.446087,23.2053067 C114.974785,23.2053067 115.431882,23.1412803 115.817391,23.0132258 C116.2029,22.8851712 116.522318,22.7097947 116.775652,22.4870911 C117.028987,22.2643875 117.216231,22.011066 117.337391,21.7271189 C117.458551,21.4431718 117.51913,21.1397427 117.51913,20.8168224 C117.51913,20.3825504 117.397972,20.02623 117.155652,19.7478505 C116.913332,19.469471 116.591161,19.2300682 116.18913,19.0296349 C115.787099,18.8292017 115.330003,18.6510415 114.817826,18.4951489 C114.30565,18.3392564 113.78522,18.1722312 113.256522,17.9940683 C112.727823,17.8159055 112.207394,17.6099077 111.695217,17.3760689 C111.183041,17.1422301 110.725944,16.8443685 110.323913,16.4824752 C109.921882,16.1205818 109.599711,15.6807488 109.357391,15.1629629 C109.115071,14.645177 108.993913,14.013265 108.993913,13.2672079 C108.993913,12.5879619 109.128839,11.9421312 109.398696,11.3296963 C109.668552,10.7172613 110.06507,10.1772132 110.588261,9.70953563 C111.111452,9.24185806 111.755793,8.87161887 112.521304,8.59880695 C113.286815,8.32599503 114.17072,8.18959112 115.173043,8.18959112 C116.307542,8.18959112 117.337387,8.37331884 118.262609,8.74077979 C119.187831,9.10824074 119.964345,9.60931634 120.592174,10.2440216 L119.79913,11.5468312 Z M131.446957,8.18959112 C132.6916,8.18959112 133.817821,8.39558887 134.825652,8.80759054 C135.833483,9.21959221 136.692605,9.8041804 137.403043,10.5613727 C138.113482,11.3185649 138.661447,12.2372035 139.046957,13.317316 C139.432466,14.3974285 139.625217,15.6111449 139.625217,16.9585018 C139.625217,18.3058586 139.432466,19.519575 139.046957,20.5996875 C138.661447,21.6798 138.113482,22.6012223 137.403043,23.3639822 C136.692605,24.126742 135.833483,24.714114 134.825652,25.1261157 C133.817821,25.5381173 132.6916,25.7441151 131.446957,25.7441151 C130.191298,25.7441151 129.05957,25.5381173 128.051739,25.1261157 C127.043908,24.714114 126.182033,24.126742 125.466087,23.3639822 C124.750141,22.6012223 124.199422,21.6798 123.813913,20.5996875 C123.428404,19.519575 123.235652,18.3058586 123.235652,16.9585018 C123.235652,15.6111449 123.428404,14.3974285 123.813913,13.317316 C124.199422,12.2372035 124.750141,11.3185649 125.466087,10.5613727 C126.182033,9.8041804 127.043908,9.21959221 128.051739,8.80759054 C129.05957,8.39558887 130.191298,8.18959112 131.446957,8.18959112 Z M131.446957,22.9380637 C132.966964,22.9380637 134.098692,22.4230693 134.842174,21.3930651 C135.585656,20.363061 135.957391,18.8904554 135.957391,16.9752044 C135.957391,15.0599534 135.585656,13.5817804 134.842174,12.5406411 C134.098692,11.4995017 132.966964,10.9789398 131.446957,10.9789398 C129.90492,10.9789398 128.759424,11.4995017 128.010435,12.5406411 C127.261446,13.5817804 126.886957,15.0599534 126.886957,16.9752044 C126.886957,18.8904554 127.261446,20.363061 128.010435,21.3930651 C128.759424,22.4230693 129.90492,22.9380637 131.446957,22.9380637 Z" id="Combined-Shape" fill="#FFFFFF"></path>
            </g>
        </g>
    </g>
</svg>