<?xml version="1.0" encoding="UTF-8"?>
<svg width="28px" height="29px" viewBox="0 0 28 29" version="1.1" xmlns="http://www.w3.org/2000/svg" xmlns:xlink="http://www.w3.org/1999/xlink">
    <!-- Generator: Sketch 42 (36781) - http://www.bohemiancoding.com/sketch -->
    <title>Isotype</title>
    <desc>Created with Sketch.</desc>
    <defs></defs>
    <g id="Page-1" stroke="none" stroke-width="1" fill="none" fill-rule="evenodd">
        <g id="Header" transform="translate(-70.000000, 0.000000)">
            <g id="Logo-Intenso" transform="translate(70.000000, 0.000000)">
                <g id="Isotype">
                    <rect id="Rectangle" fill="#E8003A" x="0" y="0" width="27.826087" height="28.1308411" rx="5"></rect>
                    <path d="M17.4294686,22.0074602 C17.2906821,19.4882279 13.49129,20.1290182 14.544123,14.6522188 C14.825232,13.1930123 10.0516822,17.6279306 10.6236242,22.8573907 C10.6683506,23.2701323 10.8154989,23.8435271 10.9467315,23.9551037 C11.052194,24.1596791 11.1785592,24.345339 11.3210928,24.5123677 C11.1336344,24.4537396 10.9248005,24.3559333 10.721187,24.2516984 C8.61382899,23.0622166 6.86502471,20.6959183 7.34081671,17.6319736 C8.91864851,7.47546652 20.1295587,1.97556438 18.8643623,4.55083999 C14.1074192,14.2070681 21.5686585,15.2540654 20.5496625,20.0637092 C19.9700227,22.8044661 18.2092808,24.3147522 16.1590778,24.8777376 C16.3700897,24.7168431 16.5632317,24.5317914 16.7319109,24.3225326 C17.2020708,23.7392655 17.4821786,22.9679332 17.4294686,22.0074602 Z" id="Combined-Shape" fill="#FFFFFF"></path>
                </g>
            </g>
        </g>
    </g>
</svg>